<svg width="708" height="120" viewBox="0 0 708 120" fill="none" xmlns="http://www.w3.org/2000/svg">
<path d="M0 60H103.516V0H0V60ZM55.1368 48.3333H45.3474L38.6526 26.218L32.1474 48.3333H22.3579L10.6105 11.4103H20.2737L27.6 35.8974L35.3053 11.4103H42.1263L49.8947 35.8333L57.2211 11.4103H66.8211L55.1368 48.3333ZM92.9053 48.3333H71.6211V11.4103H92.7158V19.8077H81.0947V25.7692H92.0211V33.9744H81.0947V40.1282H92.9053V48.3333Z" transform="scale(2)" fill="black"/>
<path d="M10.6737 34.5513C8.52632 33.718 6.69474 32.5 5.11579 30.9615C3.53684 29.4231 2.27368 27.5641 1.38947 25.4487C0.442101 23.3333 -1.92743e-06 20.8974 -1.92743e-06 18.2692C-1.92743e-06 15.5769 0.442107 13.0769 1.32632 10.8333C2.21053 8.58974 3.41053 6.66667 4.92632 5.0641C6.44211 3.46154 8.27369 2.24359 10.3579 1.34615C12.4421 0.448718 14.7158 -2.44532e-07 17.1789 -2.44532e-07C18.0632 -2.44532e-07 18.8842 0 19.5789 0.0641026C20.2737 0.128205 21.0316 0.25641 21.7263 0.384615C22.4211 0.576923 23.1158 0.769231 23.7474 1.02564C24.4421 1.28205 25.1368 1.66667 25.9579 2.05128V11.2821C25.4526 10.8974 24.9474 10.4487 24.3789 10.1282C23.8105 9.74359 23.2421 9.42308 22.5474 9.16667C21.9158 8.91026 21.1579 8.71795 20.3368 8.52564C19.5158 8.39744 18.5684 8.33333 17.5579 8.33333C16.1053 8.33333 14.9053 8.58974 13.7684 9.10256C12.6947 9.61538 11.7474 10.3205 10.9895 11.1538C10.2316 12.0513 9.66315 13.0769 9.28421 14.2949C8.90526 15.5128 8.71579 16.859 8.71579 18.2692C8.71579 19.6154 8.96842 20.8974 9.41053 21.9872C9.85264 23.141 10.5474 24.0385 11.3684 24.8718C12.1895 25.641 13.2 26.2821 14.3368 26.7308C15.4737 27.1795 16.6737 27.3718 18 27.3718C19.6421 27.3718 21.0947 27.1154 22.2947 26.5385C23.5579 25.9615 24.6947 25.3205 25.8316 24.5513V33.4615C25.1368 33.7821 24.4421 34.1026 23.8737 34.359C23.2421 34.6154 22.6105 34.8718 21.9158 35.0641C21.221 35.2564 20.5263 35.4487 19.8316 35.5769C19.0737 35.7051 18.3158 35.7692 17.4316 35.7692C15.0316 35.8333 12.7579 35.3846 10.6737 34.5513Z" transform="translate(228.884 24.8721) scale(2)" fill="black"/>
<path d="M16.9263 32.8205C16.5474 32.1154 16.0421 31.282 15.3474 30.1923C14.7158 29.1026 14.0211 28.0128 13.3895 26.9231C12.7579 25.8333 12.1895 24.8077 11.621 23.8462C11.0526 22.8846 10.7368 22.3077 10.4842 21.9872H8.71579V33.9103H0V0H13.3263C14.779 0 16.2316 0.192308 17.621 0.641026C19.0105 1.08974 20.2105 1.73077 21.2842 2.62821C22.3579 3.52564 23.179 4.61538 23.8105 5.96154C24.4421 7.30769 24.7579 8.84615 24.7579 10.641C24.7579 12.9487 24.2526 14.9359 23.3053 16.4744C22.3579 18.0128 20.9053 19.1667 19.0105 19.9359C19.1368 20.1282 19.4526 20.641 19.9579 21.4103C20.4632 22.1795 21.0316 23.0769 21.7263 24.1026C22.421 25.1282 23.1158 26.2179 23.8105 27.3718C24.5684 28.5256 25.2 29.6154 25.8316 30.5769C26.4632 31.5385 27.1579 32.6923 27.9789 33.9103H17.5579C17.4947 33.8462 17.3053 33.4615 16.9263 32.8205ZM8.58948 6.79487V15.3205H11.3684C12 15.3205 12.5684 15.2564 13.0737 15.1282C13.6421 15 14.0842 14.7436 14.4632 14.4231C14.8421 14.1026 15.2211 13.6538 15.4737 13.0769C15.7263 12.5 15.8526 11.859 15.8526 11.0256C15.8526 8.20513 14.4 6.73077 11.4316 6.73077H8.58948V6.79487Z" transform="translate(297.474 26.9229) scale(2)" fill="black"/>
<path d="M-3.85485e-06 33.9103V0H19.3263V7.69231H8.7158V13.2051H18.7579V20.7051H8.7158V26.4103H19.5158V33.9103H-3.85485e-06Z" transform="translate(365.558 26.9229) scale(2)" fill="black"/>
<path d="M9.28421 33.9103H7.7097e-06L12.3789 0.0641028L22.3579 0L34.7369 33.9103H25.3263L23.0526 27.6282H11.4947L9.28421 33.9103ZM17.2421 10.4487L13.6421 20.8333H20.779L17.2421 10.4487Z" transform="translate(417.726 26.9229) scale(2)" fill="black"/>
<path d="M6.88421 33.9103V8.01282H3.85485e-06V2.44532e-07H22.8632V8.01282H15.9789V33.9103H6.88421Z" transform="translate(494.653 27.0511) scale(2)" fill="black"/>
<path d="M8.7158 0H-3.85485e-06V33.9103H8.7158V0Z" transform="translate(553.137 26.9229) scale(2)" fill="black"/>
<path d="M3.85485e-06 0H9.66315L18.1263 22.1154L26.4632 0H35.9368L22.1053 33.9103H13.8947L3.85485e-06 0Z" transform="translate(583.705 26.9229) scale(2)" fill="black"/>
<path d="M-1.54194e-05 33.9103V0H19.3895V7.69231H8.71581V13.2051H18.7579V20.7051H8.71581V26.4103H19.5158V33.9103H-1.54194e-05Z" transform="translate(668.969 26.9229) scale(2)" fill="black"/>
</svg>
